<svg width="42" height="42" viewBox="0 0 42 42" fill="none" xmlns="http://www.w3.org/2000/svg">
<g id="notifications_none_24px">
<path id="icon/social/notifications_none_24px" fill-rule="evenodd" clip-rule="evenodd" d="M31.5 27.5625V18.8125C31.5 13.44 28.6475 8.9425 23.625 7.7525V6.5625C23.625 5.11 22.4525 3.9375 21 3.9375C19.5475 3.9375 18.375 5.11 18.375 6.5625V7.7525C13.37 8.9425 10.5 13.4225 10.5 18.8125V27.5625L7 31.0625V32.8125H35V31.0625L31.5 27.5625ZM21 38.0625C22.925 38.0625 24.5 36.4875 24.5 34.5625H17.5C17.5 36.4875 19.075 38.0625 21 38.0625ZM14 29.3125H28V18.8125C28 14.4725 25.3575 10.9375 21 10.9375C16.6425 10.9375 14 14.4725 14 18.8125V29.3125Z" fill="#4183D7"/>
</g>
</svg>
