<svg width="42" height="42" viewBox="0 0 42 42" fill="none" xmlns="http://www.w3.org/2000/svg">
<g id="remove_red_eye_24px">
<path id="icon/image/remove_red_eye_24px" fill-rule="evenodd" clip-rule="evenodd" d="M1.75 21C4.7775 13.3175 12.25 7.875 21 7.875C29.75 7.875 37.2225 13.3175 40.25 21C37.2225 28.6825 29.75 34.125 21 34.125C12.25 34.125 4.7775 28.6825 1.75 21ZM36.435 21C33.5475 15.1025 27.6325 11.375 21 11.375C14.3675 11.375 8.45254 15.1025 5.56504 21C8.45254 26.8975 14.35 30.625 21 30.625C27.65 30.625 33.5475 26.8975 36.435 21ZM21 16.625C23.415 16.625 25.375 18.585 25.375 21C25.375 23.415 23.415 25.375 21 25.375C18.585 25.375 16.625 23.415 16.625 21C16.625 18.585 18.585 16.625 21 16.625ZM13.125 21C13.125 16.66 16.66 13.125 21 13.125C25.34 13.125 28.875 16.66 28.875 21C28.875 25.34 25.34 28.875 21 28.875C16.66 28.875 13.125 25.34 13.125 21Z" fill="#4183D7"/>
</g>
</svg>
