<svg width="42" height="42" viewBox="0 0 42 42" fill="none" xmlns="http://www.w3.org/2000/svg">
<g id="schedule_24px">
<path id="icon/action/schedule_24px" fill-rule="evenodd" clip-rule="evenodd" d="M20.9825 3.5C11.3225 3.5 3.5 11.34 3.5 21C3.5 30.66 11.3225 38.5 20.9825 38.5C30.66 38.5 38.5 30.66 38.5 21C38.5 11.34 30.66 3.5 20.9825 3.5ZM21 35C13.265 35 7 28.735 7 21C7 13.265 13.265 7 21 7C28.735 7 35 13.265 35 21C35 28.735 28.735 35 21 35ZM19.25 12.25H21.875V21.4375L29.75 26.11L28.4375 28.2625L19.25 22.75V12.25Z" fill="#4183D7"/>
</g>
</svg>
